<?xml version="1.0" encoding="utf-8"?>
<!DOCTYPE svg PUBLIC "-//W3C//DTD SVG 20010904//EN" "http://www.w3.org/TR/2001/REC-SVG-20010904/DTD/svg10.dtd">
<svg height="571.000000pt" preserveAspectRatio="xMidYMid meet" version="1.0" viewBox="0 0 853.000000 571.000000" width="853.000000pt" xmlns="http://www.w3.org/2000/svg">
<g fill="#EF4444" stroke="none" transform="translate(0.000000,571.000000) scale(0.100000,-0.100000)">
<path d="M1915 5560 c-3 -5 -16 -10 -28 -10 -38 0 -140 -30 -192 -56 -92 -47 -176 -115 -242 -196 -61 -75 -91 -130 -129 -235 -26 -73 -28 -88 -28 -224 1 -80 5 -152 10 -160 5 -8 18 -41 29 -74 57 -171 226 -355 373 -407 31 -11 63 -24 70 -30 38 -32 299 -50 402 -28 42 9 125 42 194 76 19 10 32 12 39 5 7 -7 -9 -32 -49 -76 -87 -98 -85 -91 -39 -131 22 -19 47 -33 55 -32 8 2 77 71 153 153 76 83 141 153 145 157 4 3 32 29 62 56 52 48 54 51 38 69 -9 10 -30 26 -47 36 l-31 18 -50 -47 c-33 -31 -55 -44 -66 -40 -8 3 -14 9 -12 14 2 4 26 54 55 112 42 86 52 119 58 180 4 41 12 80 17 87 12 15 5 110 -15 220 -18 96 -74 215 -142 302 -46 58 -139 141 -158 141 -6 0 -18 6 -26 14 -35 31 -110 64 -181 80 -41 10 -83 21 -92 27 -24 12 -165 12 -173 -1z"/>
<path d="M4065 4644 c-16 -2 -64 -9 -105 -14 -41 -6 -84 -15 -95 -19 -11 -5 -46 -14 -78 -21 -32 -6 -83 -23 -113 -36 -30 -13 -60 -24 -67 -24 -25 0 -177 -80 -274 -143 -54 -36 -135 -97 -180 -136 l-83 -72 -29 16 c-17 8 -36 15 -44 15 -14 0 -68 -53 -84 -83 -5 -9 -80 -91 -166 -182 l-158 -165 47 -50 c43 -46 46 -51 32 -72 -7 -13 -22 -50 -33 -83 -10 -33 -22 -65 -27 -71 -14 -20 -38 -139 -38 -196 0 -31 -4 -60 -10 -63 -6 -4 -10 -58 -10 -130 0 -72 4 -126 10 -130 6 -3 10 -35 10 -71 0 -64 25 -210 39 -229 4 -5 14 -37 21 -70 7 -33 19 -71 26 -85 7 -14 27 -61 44 -105 39 -100 185 -392 252 -505 70 -119 88 -149 114 -197 12 -24 43 -72 68 -108 25 -36 46 -68 46 -70 0 -3 20 -34 45 -71 25 -36 45 -68 45 -70 0 -3 21 -35 48 -72 26 -36 52 -74 57 -83 6 -10 31 -47 58 -84 26 -36 47 -69 47 -72 0 -3 22 -33 48 -67 27 -33 65 -88 86 -121 21 -33 57 -82 81 -110 23 -27 48 -61 55 -75 7 -14 28 -45 47 -70 18 -25 48 -66 66 -91 18 -26 51 -72 75 -103 23 -30 42 -58 42 -60 0 -16 96 -129 116 -136 13 -5 26 -21 30 -35 3 -13 22 -39 42 -56 29 -26 41 -30 70 -25 39 6 77 44 87 88 4 16 15 28 28 32 13 3 36 27 52 53 17 26 50 70 74 97 24 27 59 74 79 105 19 31 52 76 72 101 39 46 86 113 167 235 26 39 64 90 84 115 21 25 44 56 51 70 7 14 37 57 66 95 29 39 77 108 107 155 30 47 58 90 63 95 4 6 31 46 59 90 29 44 61 91 71 105 10 14 32 48 47 75 16 28 43 71 62 96 18 26 33 50 33 54 0 4 8 19 19 33 10 15 22 38 26 52 4 14 15 34 25 45 19 22 250 478 250 494 0 5 13 38 29 73 16 35 32 81 36 103 4 22 16 67 26 100 43 135 74 481 50 565 -5 19 -17 78 -27 130 -9 52 -22 104 -29 115 -7 11 -16 37 -20 59 -5 32 -31 92 -67 156 -5 8 -18 34 -29 58 -11 24 -35 64 -52 89 -18 25 -36 52 -42 61 -61 101 -353 392 -392 392 -6 0 -17 7 -24 16 -24 30 -110 81 -256 153 -34 17 -66 31 -72 31 -5 0 -40 13 -78 29 -38 16 -98 34 -133 40 -36 5 -94 17 -130 26 -63 15 -413 29 -485 19z m383 -828 c467 -101 795 -496 769 -926 -14 -216 -101 -406 -261 -566 -391 -391 -1061 -391 -1452 0 -499 500 -248 1299 465 1482 144 37 335 41 479 10z"/>
<path d="M2808 4333 c-8 -10 -17 -25 -21 -33 -3 -8 -83 -98 -178 -199 l-173 -184 49 -45 48 -46 88 94 c49 52 89 99 89 104 0 5 50 60 111 122 l111 112 -38 46 c-41 49 -62 56 -86 29z"/>
</g>
</svg>